<svg width="40" height="69" viewBox="0 0 40 69" fill="none" xmlns="http://www.w3.org/2000/svg">
<g filter="url(#filter0_d_206_1587)">
<path d="M33.2268 28.978C31.4294 29.5996 27.6636 30.6898 25.177 29.942C25.177 29.942 26.7581 29.6987 27.8708 29.1402C25.695 29.1627 20.294 27.1491 20.1363 22.8877C25.3617 29.3789 32.3529 27.2077 32.8304 26.4644C31.5556 22.0003 25.8617 18.4957 24.1995 17.5542C23.4787 18.2479 22.3256 19.0452 20.5507 19.5317C20.5507 19.5317 20.7129 19.32 20.9606 18.9777L20.0687 19.7074L19.866 19.5498V22.8922C19.7174 27.1446 14.2983 29.1762 12.1315 29.1447C13.2442 29.7032 14.8253 29.9465 14.8253 29.9465C12.3387 30.6898 8.57286 29.5996 6.77551 28.9825C5.15834 31.0681 10.4378 33.4151 11.7982 33.6448H15.4965C15.8659 33.9646 17.7218 35.5953 18.0506 35.8791C18.0506 36.0278 18.1092 42.7802 18.1092 42.9289L19.8615 44.7217L19.9966 44.8614L21.8886 42.9289C21.8886 42.7982 21.9472 36.0097 21.9472 35.8791C22.285 35.5818 24.1229 33.9781 24.5013 33.6448C24.5013 33.6448 28.1996 33.6448 28.1951 33.6448C29.56 33.4151 34.8395 31.0726 33.2178 28.9825L33.2268 28.978Z" fill="url(#paint0_linear_206_1587)"/>
<path d="M32.8801 28.9239C31.0827 29.5456 27.3168 30.6357 24.8303 29.8879C24.8303 29.8879 26.4114 29.6447 27.524 29.0861C25.3483 29.1086 19.9472 27.095 19.7896 22.8336C25.015 29.3248 32.0062 27.1536 32.4837 26.4103C31.2088 21.9462 25.515 18.4416 23.8528 17.5001C23.132 18.1938 21.9788 18.9912 20.204 19.4777C20.204 19.4777 20.3662 19.2659 20.6139 18.9236L19.722 19.6533L19.5193 19.4957V44.6677L19.6544 44.8073L21.5464 42.8748C21.5464 42.7442 21.6049 35.9557 21.6049 35.825C21.9428 35.5277 23.7807 33.9241 24.1591 33.5907C24.1591 33.5907 27.8574 33.5907 27.8529 33.5907C29.2178 33.361 34.4972 31.0186 32.8756 28.9284L32.8801 28.9239Z" fill="url(#paint1_linear_206_1587)"/>
<path d="M19.9021 2.51324C19.7895 2.58982 19.6589 2.68442 19.5192 2.78803C18.4607 3.56283 16.6543 5.04486 14.9065 7.2161C15.2939 8.54497 16.2309 11.2613 16.812 14.1172V13.2208L18.1769 14.7704V11.7478L19.6589 16.0587L21.204 11.7478V16.1128L23.3887 13.2523C24.114 10.2928 25.0014 8.38731 25.3528 7.2161C23.3707 4.75656 20.8616 3.17543 19.9066 2.51324H19.9021Z" fill="url(#paint2_linear_206_1587)"/>
<path d="M18.8616 18.9782C19.0508 19.28 19.1814 19.4737 19.1814 19.4737C17.3841 18.9827 16.4921 18.1314 15.821 17.1223L15.6813 17.2304L13.7533 18.5503C13.5461 18.6899 13.3299 18.8341 13.1047 18.9917L13.0776 19.0098C10.7532 20.645 7.70808 23.2982 6.81616 26.4109C7.29365 27.1587 14.2849 29.3254 19.5103 22.8342V19.4918L18.8526 18.9782H18.8616Z" fill="url(#paint3_linear_206_1587)"/>
<path d="M20.6139 18.9197L23.2131 16.7845L22.8076 13.7619L23.8843 12.4195L22.9338 13.2529C22.6455 14.4286 22.3842 15.5592 22.1905 16.4917C21.677 17.4061 21.0238 18.3476 20.6094 18.9242L20.6139 18.9197Z" fill="#870000"/>
<path d="M17.0369 14.437C16.9693 14.0406 16.8927 13.6351 16.8117 13.2207L16.4963 17.1217L18.8658 18.9776C18.4468 18.3155 17.7351 17.1443 17.5054 16.4505L17.0414 14.437H17.0369Z" fill="#870000"/>
<path d="M16.1991 10.5772L15.4828 7.71221L18.8433 4.68959L19.8523 7.37436L20.8614 4.68959L24.2218 7.71221L23.5506 11.0727L25.5642 6.03197L19.519 0.991272L13.4692 6.70317L16.1991 10.5772Z" fill="#DB3541"/>
<path d="M32.7402 40.9831V31.9152L29.1996 37.2848L23.812 39.9785V57.6278C24.9562 56.925 26.0058 56.1142 26.9563 55.2628L25.5013 47.0373L28.5419 53.7132C29.2356 52.979 29.8573 52.2447 30.3978 51.5465L28.0194 46.195L31.3798 50.2266C32.56 48.5509 33.1817 47.3346 33.1817 47.3346L31.1636 42.6678L32.7402 40.9876V40.9831Z" fill="url(#paint4_linear_206_1587)"/>
<path d="M11.7846 29.0866C12.8973 29.6451 14.4784 29.8884 14.4784 29.8884C11.9918 30.6317 8.22594 29.5415 6.42858 28.9244C4.81142 31.01 10.0909 33.357 11.4513 33.5867H15.1496C15.519 33.9065 17.3749 35.5372 17.7037 35.821C17.7037 35.9697 17.7623 42.7221 17.7623 42.8708L19.5146 44.6636V22.8341C19.3659 27.0865 13.9468 29.1181 11.7801 29.0866H11.7846Z" fill="url(#paint5_linear_206_1587)"/>
<path d="M6.12646 47.33C6.12646 47.33 6.74811 48.5462 7.92832 50.222L11.2888 46.1903L8.91034 51.5418C9.4554 52.2401 10.077 52.9743 10.7663 53.7086L13.8069 47.0327L12.3519 55.2582C13.3024 56.1096 14.352 56.9204 15.4961 57.6231V39.9739L10.1086 37.2801L6.56792 31.9106V40.9784L8.14455 42.6587L6.12646 47.3255V47.33Z" fill="url(#paint6_linear_206_1587)"/>
<path d="M31.9473 50.0552L28.5913 47.0326L31.3436 51.3976L31.9473 50.0552Z" fill="white"/>
<path d="M25.9019 48.037L29.3254 54.0867L28.3209 54.4246L25.9019 48.037Z" fill="white"/>
<path d="M26.5729 28.4829C21.5097 27.7487 19.8745 22.8341 19.8745 22.8341C20.3745 27.3297 23.0818 28.4694 24.4377 28.7577L25.9378 28.6586L26.5729 28.4829Z" fill="white"/>
<path d="M14.9196 17.4775L14.6088 17.9595C14.6088 17.9595 14.4781 20.1443 19.181 21.1533C19.2756 21.1533 19.0278 21.0227 18.6134 20.7794C16.0548 19.829 15.1854 18.1938 14.9196 17.473V17.4775Z" fill="white"/>
<path d="M19.5189 22.8341C19.5189 22.8341 17.9062 27.6766 12.9241 28.4649C13.0277 28.51 13.1448 28.5595 13.2799 28.6091L14.0592 28.8253C14.1178 28.8388 14.1764 28.8478 14.2349 28.8568C14.771 28.8343 18.8882 28.4919 19.5189 22.8386V22.8341Z" fill="white"/>
<path d="M7.67163 49.8524L10.8114 46.7622L8.09056 51.3975L7.67163 49.8524Z" fill="white"/>
<path d="M13.2842 48.1768L10.1084 54.0869L11.1174 54.4248L13.2842 48.1768Z" fill="white"/>
<path opacity="0.7" d="M22.8751 15.442L19.6813 19.8655L17.0506 15.7798L14.8118 17.1222C14.8118 17.1222 15.3478 19.9826 19.5597 21.0818C19.6002 21.0908 19.6408 21.1043 19.6858 21.1133C19.7263 21.1043 19.7669 21.0908 19.8119 21.0818C24.0238 19.9871 24.5598 17.1222 24.5598 17.1222L22.8796 15.442H22.8751Z" fill="#6C7C8A"/>
<path opacity="0.7" d="M27.582 28.5464C27.582 28.5464 30.9424 27.5373 33.6317 27.204C33.6317 27.204 27.9198 32.578 22.5413 28.8842L27.582 28.5464Z" fill="#6C7C8A"/>
<path opacity="0.7" d="M29.2628 53.416L27.5825 45.686L30.943 51.0646L29.2628 53.416Z" fill="#6C7C8A"/>
<path opacity="0.7" d="M25.6501 56.3983L25.2312 46.3574L27.9205 54.4207C27.9205 54.4207 26.9114 56.7722 26.5781 56.7722C26.2447 56.7722 25.6546 56.3938 25.6546 56.3938L25.6501 56.3983Z" fill="#6C7C8A"/>
<path opacity="0.7" d="M32.9566 31.906L30.2673 44.001L33.6278 40.6405L32.9566 31.906Z" fill="#6C7C8A"/>
<path opacity="0.7" d="M12.4599 28.2122C12.4599 28.2122 13.8023 29.2213 16.4915 28.8834C16.4915 28.8834 13.1311 32.2439 7.41919 28.2122H12.4599Z" fill="#6C7C8A"/>
<path opacity="0.7" d="M6.41045 31.906L9.09973 44.001L5.73926 40.6405L6.41045 31.906Z" fill="#6C7C8A"/>
<path opacity="0.7" d="M10.1089 53.416L11.7892 45.686L8.42871 51.0646L10.1089 53.416Z" fill="#6C7C8A"/>
<path opacity="0.7" d="M13.7215 56.3983L14.1404 46.3574L11.4512 54.4207C11.4512 54.4207 12.4602 56.7722 12.7936 56.7722C13.1269 56.7722 13.717 56.3938 13.717 56.3938L13.7215 56.3983Z" fill="#6C7C8A"/>
<path d="M34.5872 41.713V32.1767C36.344 29.8974 34.3394 26.199 34.3394 26.199C32.6502 20.5907 28.1365 18.2709 24.5689 15.523C25.4968 11.4778 27.096 7.21645 27.0915 7.28402L27.2446 6.76598L26.9158 6.33804C23.294 1.82889 20.9201 0.671193 19.902 0C19.8255 0.0405418 19.6903 0.112619 19.5191 0.22073C18.3524 0.936969 15.2037 3.16227 12.5595 6.76598L12.7126 7.28402C12.7216 7.25699 14.2802 11.3923 15.2172 15.4374L13.4874 16.514C10.9243 18.1087 6.1088 21.6403 4.96913 26.199C4.96913 26.199 2.96456 29.8928 4.72137 32.1722V41.7085L6.298 43.3888L4.27992 47.3258L4.30244 47.5961C4.28442 48.8484 10.645 57.8892 17.3434 60.9209V45.6771C17.411 45.7312 19.0371 47.006 19.5191 47.3844C19.6002 47.452 19.6543 47.4925 19.6543 47.4925C19.6408 47.506 21.8976 45.7267 21.9652 45.6771V60.9209C28.6861 57.8757 35.0422 48.8169 35.0061 47.5961L35.0287 47.3258L33.0106 43.3888L34.5872 41.7085V41.713ZM15.492 57.6235C14.3478 56.9207 13.2982 56.1099 12.3477 55.2585L13.8027 47.033L10.7621 53.7089C10.0684 52.9747 9.44675 52.2404 8.90619 51.5422L11.2846 46.1907L7.92418 50.2223C6.74396 48.5466 6.12232 47.3303 6.12232 47.3303L8.1404 42.6635L6.56377 40.9833V31.9154L10.1044 37.285L15.492 39.9788V57.628V57.6235ZM21.6003 35.821C21.6003 35.9516 21.5417 42.7401 21.5417 42.8707L19.6498 44.8032L19.5146 44.6636L17.7623 42.8707C17.7623 42.7176 17.7038 35.9696 17.7038 35.821C17.3749 35.5327 15.519 33.9065 15.1496 33.5867H11.4513C10.0864 33.3569 4.80696 31.01 6.42863 28.9243C8.22599 29.546 11.9919 30.6361 14.4784 29.8883C14.4784 29.8883 12.8973 29.6451 11.7847 29.0865C13.9514 29.118 19.3705 27.0864 19.5191 22.8341C14.2937 29.3253 7.30254 27.154 6.82505 26.4108C7.71697 23.2935 10.7621 20.6448 13.0865 19.0096L13.1135 18.9916C13.3388 18.8339 13.555 18.6853 13.7622 18.5501L15.6902 17.2303L15.8298 17.1222C16.501 18.1312 17.3929 18.9826 19.1903 19.4736C19.1903 19.4736 17.8479 17.4555 17.5101 16.451L17.0461 14.4374C16.5236 11.3247 15.3568 8.73902 14.9154 7.21645C16.6632 5.04521 18.4741 3.56318 19.5282 2.78838C19.6678 2.68477 19.7984 2.59017 19.9111 2.51359C20.866 3.17578 22.9247 4.75691 24.9112 7.21645C24.4157 8.84713 22.8796 13.2076 22.2039 16.487C21.3886 17.942 20.2174 19.4736 20.2174 19.4736C21.9967 18.9871 23.1454 18.1943 23.8661 17.4961C25.5283 18.4375 31.2222 21.9466 32.497 26.4062C32.0195 27.154 25.0283 29.3208 19.8029 22.8296C19.9606 27.091 25.3617 29.1045 27.5374 29.082C26.4248 29.6406 24.8436 29.8838 24.8436 29.8838C27.3302 30.6271 31.0961 29.537 32.8934 28.9198C34.5106 31.0055 29.2312 33.3524 27.8708 33.5822H24.1769C23.7986 33.9155 21.9607 35.5192 21.6228 35.8165L21.6003 35.821ZM33.1772 47.3303C33.1772 47.3303 32.5556 48.5466 31.3754 50.2223L28.0149 46.1907L30.3934 51.5422C29.8483 52.2404 29.2267 52.9747 28.5374 53.7089L25.4968 47.033L26.9518 55.2585C26.0013 56.1099 24.9517 56.9207 23.8076 57.6235V39.9743L29.1951 37.2805L32.7358 31.9109V40.9788L31.1592 42.659L33.1772 47.3258V47.3303Z" fill="#1C1B35"/>
<path d="M21.4427 14.7167L21.1949 11.7481L19.6498 15.6131L18.1678 11.7481V14.7707L16.8029 13.2211L16.5461 12.9599L17.411 16.505L18.7714 18.8609C18.7985 18.9015 18.8345 18.942 18.8525 18.9781L19.4336 20.0096L19.5147 20.1448H19.8481L20.6093 18.9195C21.0238 18.3429 21.6769 17.4014 22.1905 16.487C22.3842 15.5545 22.9427 14.0995 23.231 12.9238L21.4427 14.7122V14.7167Z" fill="url(#paint7_linear_206_1587)"/>
<path d="M13.9832 35.5551H12.6949L11.1543 35.2127L12.1814 35.9289L13.1003 36.5686L15.1815 37.6092V36.456L13.9832 35.5551Z" fill="url(#paint8_linear_206_1587)"/>
<path d="M25.3257 35.7397H26.614L28.1546 35.3973L27.123 36.1136L26.2086 36.7532L24.1274 37.7938V36.6406L25.3257 35.7397Z" fill="url(#paint9_linear_206_1587)"/>
</g>
<defs>
<filter id="filter0_d_206_1587" x="0" y="0" width="39.3086" height="68.9208" filterUnits="userSpaceOnUse" color-interpolation-filters="sRGB">
<feFlood flood-opacity="0" result="BackgroundImageFix"/>
<feColorMatrix in="SourceAlpha" type="matrix" values="0 0 0 0 0 0 0 0 0 0 0 0 0 0 0 0 0 0 127 0" result="hardAlpha"/>
<feOffset dy="4"/>
<feGaussianBlur stdDeviation="2"/>
<feComposite in2="hardAlpha" operator="out"/>
<feColorMatrix type="matrix" values="0 0 0 0 0 0 0 0 0 0 0 0 0 0 0 0 0 0 0.25 0"/>
<feBlend mode="normal" in2="BackgroundImageFix" result="effect1_dropShadow_206_1587"/>
<feBlend mode="normal" in="SourceGraphic" in2="effect1_dropShadow_206_1587" result="shape"/>
</filter>
<linearGradient id="paint0_linear_206_1587" x1="26.3662" y1="18.802" x2="13.4919" y2="41.1" gradientUnits="userSpaceOnUse">
<stop stop-color="#F2F2F2"/>
<stop offset="1" stop-color="#9FACBC"/>
</linearGradient>
<linearGradient id="paint1_linear_206_1587" x1="28.8935" y1="20.4056" x2="16.0192" y2="42.7036" gradientUnits="userSpaceOnUse">
<stop stop-color="#F2F2F2"/>
<stop offset="1" stop-color="#9FACBC"/>
</linearGradient>
<linearGradient id="paint2_linear_206_1587" x1="14.902" y1="9.31076" x2="25.3438" y2="9.31076" gradientUnits="userSpaceOnUse">
<stop stop-color="#FD9D05"/>
<stop offset="1" stop-color="#FD6A07"/>
</linearGradient>
<linearGradient id="paint3_linear_206_1587" x1="16.9787" y1="17.789" x2="10.6767" y2="28.6993" gradientUnits="userSpaceOnUse">
<stop stop-color="#F2F2F2"/>
<stop offset="1" stop-color="#9FACBC"/>
</linearGradient>
<linearGradient id="paint4_linear_206_1587" x1="34.6457" y1="33.0144" x2="21.2804" y2="56.1637" gradientUnits="userSpaceOnUse">
<stop stop-color="#F2F2F2"/>
<stop offset="1" stop-color="#9FACBC"/>
</linearGradient>
<linearGradient id="paint5_linear_206_1587" x1="20.6453" y1="23.4873" x2="11.1945" y2="39.8617" gradientUnits="userSpaceOnUse">
<stop stop-color="#F2F2F2"/>
<stop offset="1" stop-color="#9FACBC"/>
</linearGradient>
<linearGradient id="paint6_linear_206_1587" x1="15.4826" y1="37.0594" x2="6.58144" y2="52.4788" gradientUnits="userSpaceOnUse">
<stop stop-color="#F2F2F2"/>
<stop offset="1" stop-color="#9FACBC"/>
</linearGradient>
<linearGradient id="paint7_linear_206_1587" x1="19.8931" y1="11.7481" x2="19.8931" y2="20.1448" gradientUnits="userSpaceOnUse">
<stop stop-color="#DB3541"/>
<stop offset="1" stop-color="#DB451E"/>
</linearGradient>
<linearGradient id="paint8_linear_206_1587" x1="11.1543" y1="36.4109" x2="15.1815" y2="36.4109" gradientUnits="userSpaceOnUse">
<stop stop-color="#FD9D05"/>
<stop offset="1" stop-color="#FD6A07"/>
</linearGradient>
<linearGradient id="paint9_linear_206_1587" x1="24.1274" y1="36.5956" x2="28.1546" y2="36.5956" gradientUnits="userSpaceOnUse">
<stop stop-color="#FD9D05"/>
<stop offset="1" stop-color="#FD6A07"/>
</linearGradient>
</defs>
</svg>
